<?xml version="1.0" encoding="utf-8"?>
<!-- Generator: Adobe Illustrator 24.3.0, SVG Export Plug-In . SVG Version: 6.00 Build 0)  -->
<svg version="1.1" id="Layer_1" xmlns="http://www.w3.org/2000/svg" xmlns:xlink="http://www.w3.org/1999/xlink" x="0px" y="0px"
	 viewBox="0 0 476 388.1" style="enable-background:new 0 0 476 388.1;" xml:space="preserve">
<style type="text/css">
	.st0{fill:#FFC800;}
	.st1{font-family:'AmericanTypewriterITCPro-Bold';}
	.st2{font-size:56px;}
	.st3{letter-spacing:2;}
	.st4{fill:none;stroke:#274657;stroke-miterlimit:10;}
	.st5{letter-spacing:1;}
	.st6{fill:#274657;}
	.st7{fill:#D4A600;}
	.st8{fill:#FFCC00;}
</style>
<g>
	<text transform="matrix(1 0 0 1 0 370.93)" class="st0 st1 st2 st3">HUNG</text>
	<text transform="matrix(1 0 0 1 0 370.93)" class="st4 st1 st2 st3">HUNG</text>
	<text transform="matrix(1 0 0 1 198.24 370.93)" class="st0 st1 st2">R</text>
	<text transform="matrix(1 0 0 1 198.24 370.93)" class="st4 st1 st2">R</text>
	<text transform="matrix(1 0 0 1 242.48 370.93)" class="st0 st1 st2 st3">Y </text>
	<text transform="matrix(1 0 0 1 242.48 370.93)" class="st4 st1 st2 st3">Y </text>
	<text transform="matrix(1 0 0 1 307.44 370.93)" class="st0 st1 st2 st5">C</text>
	<text transform="matrix(1 0 0 1 307.44 370.93)" class="st4 st1 st2 st5">C</text>
	<text transform="matrix(1 0 0 1 347.76 370.93)" class="st0 st1 st2">A</text>
	<text transform="matrix(1 0 0 1 347.76 370.93)" class="st4 st1 st2">A</text>
	<text transform="matrix(1 0 0 1 394.24 370.93)" class="st0 st1 st2 st3">TS</text>
	<text transform="matrix(1 0 0 1 394.24 370.93)" class="st4 st1 st2 st3">TS</text>
	<path class="st0" d="M403.1,150.3c0.4,80.6-64.7,146.3-145.3,146.7c-0.5,0-1.1,0-1.6,0c-80.9-0.3-146.9-65.7-146.1-148.7
		c0.8-79.7,65.2-146.8,150-145C338.5,4.9,403.2,67.8,403.1,150.3z M168.1,149.2c-1.1,50.3,39.1,89.6,87.7,89.9
		c50,0.3,88.2-39.1,89.3-85.7c1.3-53.2-39.6-91.8-88-92.1C206.5,61,167.4,101.8,168.1,149.2L168.1,149.2z"/>
	<path class="st6" d="M427.5,276.2c0.8-20,1.6-41.4,2.2-62.9c0.5-18.4,1.2-36.9,2-55.3c0.6-14.1,0.5-28.2,1.8-42.3
		c0.2-2.5-0.2-4.3-3-5.4c-14.4-5.4-21.7-16.8-22.6-31.3c-1.3-20.1-0.6-40.2,6.7-59.5c5.9-15.7,22.4-23.7,36-17.3
		c7.9,3.7,12.3,10.6,15.4,18.2c4.9,11.9,6.9,24.6,7.5,37.4c0.4,8.1,1.6,16-0.5,24.2c-3.1,12-9.6,21-20,27.4c-2.5,1.5-3.4,3-3.5,5.9
		c-0.2,18.6,0.9,37.3,1.4,55.9c0.5,22.3,1,44.6,2,66.8c0.7,14.3-0.4,28.6,1.5,42.8c1,7.3-0.3,14-7.8,17.9c-6.3,3.4-14.2,1-17.6-5.4
		c-0.9-1.8-1.5-3.7-1.5-5.7C427.5,284.3,427.5,280.9,427.5,276.2z"/>
	<path class="st6" d="M110.5,39.6c0,11.3,0.4,22.7-0.1,34c-0.5,12.6-3.9,24.3-13.8,33c-1.2,1.2-2.5,2.2-4,2.9
		c-2.6,1.1-3.1,3-3.1,5.6c0,12.3,0.9,24.6,1.2,36.9c0.4,14.3,0.3,28.6,0.9,42.9c0.9,20.9,1.4,41.9,2.1,62.8
		c0.3,9.1,0.7,18.3,0.8,27.4s-5.5,15-13.7,15c-7.6,0.1-13.5-6.4-13.3-15c0.5-21.8,1.6-43.5,2.2-65.3c0.4-17.8,1.5-35.5,1.9-53.3
		c0.3-16.6,1.2-33.2,1.9-49.8c0.1-3.2-0.4-5.2-3.6-7.2c-11.4-7-16.2-18.1-17.4-30.9c-2.2-24.8-0.4-49.6-1-74.4
		c0-3.2,1.2-4.2,4.4-4.1c10.4,0.2,8.6-0.9,8.7,8.3c0.1,19,0,38,0,57c-0.1,1.2-0.1,2.3,0,3.5c0.4,3.2,2.3,5.2,5.6,5.2
		s4.4-2.3,4.4-5.4c0-8.5,0-17,0-25.5c0-12.8,0.1-25.7,0-38.5c0-3.4,0.8-4.7,4.5-4.6c11.6,0.4,9.5-1.3,9.6,9.4c0.1,19,0.1,38,0,57
		c0,2.6,0.1,5,2.5,6.7c3.2,2.3,6.9,0.8,7.5-3c0.1-1.3,0.1-2.7,0.1-4c0-20.3,0.2-40.7-0.1-61c-0.1-5.2,2.4-5.1,6.1-5.1
		s6.3-0.1,6.1,5.1C110.3,16.6,110.5,28.1,110.5,39.6z"/>
	<path class="st6" d="M15.6,155.2c-9.1-15.6-12.4-32.7-13.1-50.5c-0.9-25.2,1.1-50.1,8-74.4C13.4,20.2,17,10.4,24.6,2.6
		c1.4-1.4,2.9-3,5.2-2s1.7,3,1.7,4.8c0,50,0,99.9,0,149.9L15.6,155.2z"/>
	<path class="st6" d="M31.5,156.2c0.3,18,0.8,35.9,1.3,53.9c0.7,24.3,1.6,48.5,1.9,72.8c0.1,5,1.3,9.8-3,13.8
		c-4.7,3.9-11.2,4.8-16.8,2.4c-4.9-2.3-6.6-6.4-6.4-11.8c0.6-18,0.5-35.9,1.3-53.9c0.8-19.6,1.8-39.2,1.9-58.8
		c0-4.5,0.6-8.9,0.9-13.4c1.4-0.2,3.6,0.6,3.7-1.4c0.2-4.5,3.2-3.6,5.9-3.6C25.3,156.2,28.4,156.2,31.5,156.2z"/>
	<path class="st6" d="M31.5,156.2c-3.1,0-6.2,0-9.3,0c-2.7,0-5.7-0.9-5.9,3.6c-0.1,1.9-2.3,1.2-3.7,1.4c2.9-1.1,3.4-3.3,3.1-6h15.9
		C31.5,155.5,31.5,155.9,31.5,156.2z"/>
	<path class="st7" d="M168.1,149.2c-0.7-47.3,38.4-88.2,89.1-88c48.4,0.2,89.2,38.8,88,92.1c-1.1,46.7-39.4,86-89.3,85.7
		C207.2,238.8,167,199.5,168.1,149.2z M336.1,151c0.6-43.9-34.5-79.9-78.4-80.5s-79.9,34.5-80.5,78.4c0,0.1,0,0.3,0,0.4
		c-0.4,45.8,35.6,80.3,78.8,80.6c43.8,0.5,79.7-34.7,80.1-78.5C336.1,151.3,336.1,151.1,336.1,151L336.1,151z"/>
	<path class="st8" d="M336.1,151c-0.3,43.8-36,79.1-79.8,78.8c-0.1,0-0.2,0-0.3,0c-43.1-0.3-79.1-34.8-78.8-80.6
		c-0.6-43.9,34.5-80,78.3-80.6c43.9-0.6,80,34.5,80.6,78.3C336.1,148.3,336.1,149.7,336.1,151z M290.1,175.6
		c0.5-7.3-1.8-14.6-6.4-20.2c-9.8-12.3-27.5-15.9-41.5-8.7c-13.7,7-19.7,21.6-15.5,37.7c3.2,12.4,8.6,15.5,20.4,10.8
		c7.3-2.9,14-3.4,21,0.1c1.2,0.5,2.5,1,3.8,1.3c6.1,1.8,10.2,0.3,14-4.7C289.3,187,290.4,181.6,290.1,175.6L290.1,175.6z M310,124
		c-10.6,0-18,5.7-21.1,16.2c-2,6.7-0.2,12.6,4.5,17.4s10.5,4.4,16.3,2.7c4.5-1.3,8.5-4.1,11.3-7.9c5-6.5,6.5-13.8,2.8-21.5
		C321.1,125.3,315.8,124,310,124z M277.9,97c-4.8-0.8-8.8,2-12.1,6c-4.7,5.6-6.6,13-5.4,20.1c0.9,5.9,4,10.8,9.9,12.8
		c5.5,2,11.6,0.8,15.8-3.3c5.8-5.2,8.8-12.9,7.8-20.7C292.8,101.7,287.7,97,277.9,97z M205,124c-9.4,0-14.9,5.2-14.9,14.1
		c0,11.8,9.8,21.9,21.2,22c8.6,0.1,15.7-6.9,15.7-15.5c0-0.1,0-0.2,0-0.3C227.1,133.2,217.1,124,205,124z M222,114.1
		c0,7.7,2.6,14.2,8.7,19.2s16.2,3.8,20.5-2.8c4.8-7.4,5.1-15.3,1.4-23.2c-3.9-8.5-10.9-12-19.4-10C226.4,98.9,222,105.4,222,114.1z"
		/>
	<path class="st6" d="M289.8,175.6c0.2,6-0.8,11.4-4.3,16.2c-3.7,5-7.9,6.5-14,4.7c-1.3-0.3-2.5-0.8-3.8-1.3c-7-3.5-13.8-3-21-0.1
		c-11.8,4.7-17.2,1.6-20.4-10.8c-4.2-16.1,1.8-30.7,15.5-37.7c14-7.2,31.7-3.6,41.5,8.7C288,161.1,290.3,168.3,289.8,175.6z"/>
	<path class="st6" d="M309.7,124.1c5.8,0,11.1,1.3,13.8,7c3.6,7.7,2.2,15-2.8,21.5c-2.8,3.8-6.7,6.6-11.3,7.9
		c-5.9,1.6-11.8,1.9-16.3-2.7s-6.5-10.7-4.5-17.4C291.6,129.8,299.1,124.1,309.7,124.1z"/>
	<path class="st6" d="M277.5,97.1c9.8,0,14.9,4.8,16,14.9c1,7.8-1.9,15.5-7.8,20.7c-4.2,4.1-10.3,5.4-15.8,3.3
		c-5.9-2-9-6.9-9.9-12.8c-1.3-7.2,0.7-14.5,5.4-20.1C268.7,99,272.7,96.2,277.5,97.1z"/>
	<path class="st6" d="M204.6,124.1c12.1,0,22.1,9.2,22.1,20.3c0.1,8.6-6.8,15.7-15.4,15.8c-0.1,0-0.2,0-0.3,0
		c-11.4-0.1-21.2-10.2-21.2-22C189.8,129.3,195.2,124.1,204.6,124.1z"/>
	<path class="st6" d="M221.6,114.2c0-8.7,4.4-15.2,11.2-16.8c8.5-2,15.5,1.5,19.4,10c3.6,7.9,3.4,15.8-1.4,23.2
		c-4.3,6.7-14.4,7.9-20.5,2.8S221.6,121.9,221.6,114.2z"/>
</g>
</svg>
