<svg xmlns="http://www.w3.org/2000/svg" viewBox="0 0 537.5 381.53"><defs><style>.cls-1{font-size:63px;stroke:#0016a4;stroke-miterlimit:10;stroke-width:2px;font-family:AmericanTypewriterITCPro-Bold, American Typewriter ITC Pro;font-weight:700;letter-spacing:0.07em;}.cls-1,.cls-6{fill:#ffc800;}.cls-2{letter-spacing:0.01em;}.cls-3{letter-spacing:0.07em;}.cls-4{letter-spacing:0.04em;}.cls-5{letter-spacing:0.03em;}.cls-7{fill:#274657;}.cls-8{fill:#d4a600;}.cls-9{fill:#fc0;}</style></defs><g id="Layer_2" data-name="Layer 2"><g id="Layer_1-2" data-name="Layer 1"><text class="cls-1" transform="translate(1 361.19)">HUNG<tspan class="cls-2" x="223.02" y="0">R</tspan><tspan class="cls-3" x="272.79" y="0">Y </tspan><tspan class="cls-4" x="345.87" y="0">C</tspan><tspan class="cls-5" x="391.23" y="0">A</tspan><tspan class="cls-3" x="443.52" y="0">TS</tspan></text><path class="cls-6" d="M433.58,150.31A146,146,0,0,1,286.66,297c-80.86-.29-146.92-65.69-146.07-148.69.82-79.66,65.22-146.8,150-145C369,4.91,433.7,67.84,433.58,150.31Zm-235-1.12c-1.1,50.28,39.14,89.6,87.72,89.86,50,.27,88.22-39.08,89.33-85.74,1.27-53.24-39.56-91.84-87.95-92.08C237,61,197.86,101.84,198.57,149.19Z"/><path class="cls-7" d="M458,276.19c.76-20,1.6-41.45,2.23-62.89q.81-27.65,2-55.29c.64-14.1.45-28.23,1.75-42.3.23-2.53-.21-4.35-3-5.43-14.35-5.43-21.66-16.83-22.63-31.27-1.34-20.08-.57-40.21,6.71-59.49,5.92-15.68,22.36-23.71,36-17.31,7.89,3.7,12.32,10.58,15.43,18.19C501.36,32.33,503.36,45,504,57.79c.4,8.05,1.57,16-.55,24.21-3.09,12-9.64,21-20,27.37-2.46,1.5-3.44,3-3.47,5.88-.15,18.65.92,37.27,1.36,55.89.52,22.26,1,44.55,2,66.79.7,14.26-.34,28.58,1.53,42.82,1,7.26-.32,14.05-7.75,17.94A13,13,0,0,1,458,287.59C457.93,284.26,458,280.92,458,276.19Z"/><path class="cls-7" d="M141,39.64c0,11.33.37,22.68-.1,34-.54,12.58-3.9,24.27-13.85,33a16.27,16.27,0,0,1-4,2.94c-2.62,1.14-3.07,3-3.06,5.61,0,12.31.91,24.59,1.24,36.89.4,14.3.34,28.61,1,42.89.91,20.93,1.43,41.86,2.07,62.79.27,9.13.72,18.26.76,27.4s-5.47,15-13.69,15c-7.58.06-13.48-6.36-13.26-15,.54-21.77,1.61-43.52,2.17-65.29.45-17.76,1.54-35.51,1.89-53.29.32-16.61,1.21-33.2,1.92-49.8.14-3.18-.43-5.24-3.64-7.21-11.4-7-16.22-18.13-17.38-30.94C80.82,54,82.67,29.12,82,4.33,81.93,1,83.16,0,86.36.12,96.77.36,95-.78,95,8.43c.1,19,0,38,0,57a27.21,27.21,0,0,0,0,3.5c.41,3.23,2.26,5.23,5.57,5.21s4.44-2.33,4.43-5.4c0-8.5,0-17,0-25.5,0-12.83.1-25.66-.06-38.49,0-3.36.8-4.75,4.44-4.64,11.62.36,9.48-1.34,9.55,9.42.13,19,.06,38,0,57,0,2.6.12,5,2.48,6.66,3.19,2.28,6.91.84,7.51-3a26.67,26.67,0,0,0,.07-4c0-20.33.19-40.66-.12-61C128.87,0,131.4.1,135,.1s6.28-.13,6.1,5.05C140.73,16.64,141,28.15,141,39.64Z"/><path class="cls-7" d="M46.11,155.18C37,139.56,33.67,122.43,33,104.63c-.91-25.2,1.1-50.09,8-74.43,2.88-10.11,6.49-19.93,14.11-27.66,1.42-1.43,2.9-3,5.18-2,2.13.92,1.7,3,1.7,4.81q0,74.94,0,149.89Z"/><path class="cls-7" d="M62,156.22c.31,18,.79,35.92,1.27,53.88.66,24.26,1.63,48.5,1.94,72.78.06,5,1.3,9.83-3,13.8a16.23,16.23,0,0,1-16.81,2.42c-4.94-2.32-6.61-6.41-6.44-11.83.55-18,.49-35.93,1.27-53.88.84-19.59,1.75-39.17,1.94-58.78,0-4.47.6-8.93.93-13.4,1.36-.19,3.61.55,3.7-1.36.21-4.49,3.25-3.61,5.91-3.64C55.78,156.19,58.89,156.22,62,156.22Z"/><path class="cls-7" d="M62,156.22c-3.12,0-6.23,0-9.34,0-2.66,0-5.7-.85-5.91,3.64-.09,1.91-2.34,1.17-3.7,1.36,2.89-1.06,3.38-3.34,3-6H62Z"/><path class="cls-8" d="M198.55,149.19c-.7-47.35,38.4-88.22,89.11-88,48.39.24,89.22,38.84,87.95,92.08-1.11,46.66-39.36,86-89.33,85.74C237.69,238.79,197.46,199.47,198.55,149.19Zm168,1.79a79.47,79.47,0,1,0-158.93-1.73c-.35,45.76,35.65,80.31,78.8,80.6A79.31,79.31,0,0,0,366.56,151Z"/><path class="cls-9" d="M366.55,151a79.31,79.31,0,0,1-80.13,78.87c-43.15-.29-79.16-34.84-78.8-80.6A79.47,79.47,0,1,1,366.55,151Zm-46,24.6a28.48,28.48,0,0,0-6.44-20.23c-9.8-12.33-27.47-15.85-41.51-8.69-13.71,7-19.73,21.59-15.54,37.68,3.23,12.39,8.6,15.54,20.4,10.81,7.25-2.91,14-3.42,21,.07a23.19,23.19,0,0,0,3.76,1.3c6.09,1.77,10.25.29,14-4.7C319.8,187,320.83,181.6,320.58,175.57ZM340.51,124c-10.57,0-18,5.74-21.13,16.25-2,6.71-.19,12.64,4.5,17.41s10.48,4.36,16.34,2.71a21.42,21.42,0,0,0,11.25-7.89c5-6.53,6.47-13.83,2.83-21.49C351.58,125.29,346.31,124,340.51,124ZM308.38,97c-4.82-.82-8.84,2-12.15,6a24.58,24.58,0,0,0-5.35,20.13c.94,5.89,4,10.77,9.93,12.76a15.1,15.1,0,0,0,15.8-3.3,23.77,23.77,0,0,0,7.79-20.71C323.25,101.74,318.17,97,308.38,97Zm-72.92,27c-9.41,0-14.86,5.18-14.89,14.14,0,11.75,9.79,21.92,21.22,22a15.64,15.64,0,0,0,15.74-15.83C257.59,133.18,247.6,124,235.46,124Zm17-9.92c0,7.72,2.64,14.21,8.7,19.22s16.22,3.84,20.53-2.82c4.81-7.41,5.09-15.29,1.45-23.22-3.92-8.49-11-12-19.45-10C256.85,98.9,252.5,105.41,252.48,114.08Z"/><path class="cls-7" d="M320.22,175.65c.25,6-.78,11.45-4.34,16.24-3.72,5-7.88,6.47-14,4.7a22.87,22.87,0,0,1-3.76-1.3c-7-3.49-13.77-3-21-.07-11.8,4.73-17.18,1.58-20.4-10.81-4.19-16.09,1.83-30.69,15.54-37.68,14-7.16,31.71-3.64,41.51,8.69A28.48,28.48,0,0,1,320.22,175.65Z"/><path class="cls-7" d="M340.14,124.08c5.81,0,11.08,1.29,13.79,7,3.65,7.66,2.18,15-2.82,21.5a21.45,21.45,0,0,1-11.26,7.88c-5.86,1.65-11.75,1.94-16.33-2.71s-6.47-10.7-4.5-17.41C322.11,129.82,329.58,124.06,340.14,124.08Z"/><path class="cls-7" d="M308,97.07c9.79,0,14.87,4.75,16,14.88a23.77,23.77,0,0,1-7.79,20.71,15.1,15.1,0,0,1-15.8,3.3c-5.93-2-9-6.87-9.93-12.76a24.58,24.58,0,0,1,5.35-20.13C299.17,99,303.2,96.25,308,97.07Z"/><path class="cls-7" d="M235.1,124.08c12.14,0,22.12,9.18,22.07,20.29a15.64,15.64,0,0,1-15.74,15.83c-11.43-.06-21.25-10.23-21.22-22C220.23,129.26,225.69,124.08,235.1,124.08Z"/><path class="cls-7" d="M252.12,114.16c0-8.67,4.37-15.18,11.23-16.79,8.5-2,15.53,1.48,19.44,10,3.65,7.93,3.37,15.81-1.44,23.22-4.32,6.66-14.36,7.91-20.53,2.82S252.11,121.88,252.12,114.16Z"/></g></g></svg>