<svg xmlns="http://www.w3.org/2000/svg" viewBox="0 0 293 293.75"><defs><style>.cls-1{fill:#ffc800;}.cls-2{fill:#d4a600;}.cls-3{fill:#fc0;}.cls-4{fill:#274657;}</style></defs><g id="Layer_2" data-name="Layer 2"><g id="Layer_1-2" data-name="Layer 1"><path class="cls-1" d="M293,147.08A146,146,0,0,1,146.08,293.75C65.21,293.46-.84,228.07,0,145.06.82,65.4,65.23-1.74,150,0,228.43,1.68,293.11,64.61,293,147.08ZM58,146c-1.1,50.28,39.14,89.6,87.73,89.86,50,.27,88.22-39.08,89.33-85.74,1.27-53.23-39.57-91.84-87.95-92.08C96.38,57.74,57.28,98.61,58,146Z"/><path class="cls-2" d="M58,146c-.71-47.35,38.4-88.22,89.1-88,48.39.24,89.22,38.85,88,92.08-1.12,46.66-39.37,86-89.34,85.74C97.11,235.56,56.87,196.24,58,146Zm168,1.79A79.47,79.47,0,1,0,67.05,146c-.36,45.76,35.65,80.31,78.8,80.6A79.31,79.31,0,0,0,226,147.75Z"/><path class="cls-3" d="M226,147.74a79.29,79.29,0,0,1-80.12,78.87C102.69,226.32,66.68,191.77,67,146A79.47,79.47,0,1,1,226,147.74Zm-46,24.6a28.43,28.43,0,0,0-6.43-20.23c-9.81-12.33-27.47-15.85-41.52-8.69-13.7,7-19.72,21.59-15.53,37.69,3.22,12.38,8.6,15.53,20.39,10.8,7.26-2.91,14-3.42,21,.07a23.19,23.19,0,0,0,3.76,1.3c6.09,1.77,10.25.29,14-4.7C179.22,183.79,180.25,178.37,180,172.34Zm19.93-51.57c-10.57,0-18,5.74-21.12,16.25-2,6.71-.2,12.65,4.5,17.42s10.47,4.35,16.33,2.7a21.42,21.42,0,0,0,11.25-7.88c5-6.54,6.48-13.84,2.83-21.49C211,122.06,205.73,120.72,199.92,120.77Zm-32.13-27c-4.82-.83-8.84,2-12.15,6a24.61,24.61,0,0,0-5.35,20.13c.94,5.89,4,10.78,9.93,12.76a15.1,15.1,0,0,0,15.8-3.3,23.74,23.74,0,0,0,7.79-20.71C182.66,98.51,177.59,93.72,167.79,93.77Zm-72.92,27C85.46,120.77,80,126,80,134.91c0,11.75,9.79,21.92,21.22,22a15.62,15.62,0,0,0,15.73-15.83C117,130,107,120.77,94.87,120.77Zm17-9.92c0,7.72,2.65,14.21,8.71,19.22s16.21,3.84,20.53-2.82c4.8-7.41,5.09-15.29,1.44-23.21-3.91-8.5-10.95-12-19.44-10C116.26,95.68,111.92,102.18,111.89,110.85Z"/><path class="cls-4" d="M179.63,172.42c.25,6-.77,11.45-4.34,16.24-3.72,5-7.88,6.47-14,4.7a23.19,23.19,0,0,1-3.76-1.3c-7-3.49-13.76-3-21-.07-11.79,4.73-17.17,1.58-20.39-10.8-4.19-16.1,1.82-30.7,15.53-37.69,14-7.15,31.71-3.64,41.51,8.69A28.39,28.39,0,0,1,179.63,172.42Z"/><path class="cls-4" d="M199.56,120.85c5.81,0,11.07,1.29,13.79,7,3.64,7.65,2.17,15-2.83,21.49a21.46,21.46,0,0,1-11.25,7.88c-5.86,1.65-11.76,1.94-16.33-2.7s-6.47-10.71-4.5-17.42C181.52,126.59,189,120.83,199.56,120.85Z"/><path class="cls-4" d="M167.43,93.85c9.8,0,14.87,4.74,16,14.87a23.77,23.77,0,0,1-7.79,20.71,15.1,15.1,0,0,1-15.8,3.3c-5.93-2-9-6.87-9.93-12.76a24.55,24.55,0,0,1,5.35-20.12C158.59,95.81,162.61,93,167.43,93.85Z"/><path class="cls-4" d="M94.51,120.85c12.14,0,22.13,9.18,22.07,20.29A15.63,15.63,0,0,1,100.85,157c-11.43-.06-21.25-10.23-21.22-22C79.65,126,85.1,120.85,94.51,120.85Z"/><path class="cls-4" d="M111.53,110.93c0-8.67,4.37-15.17,11.23-16.79,8.5-2,15.54,1.48,19.45,10,3.65,7.92,3.36,15.8-1.44,23.21-4.32,6.66-14.37,7.92-20.53,2.82S111.53,118.65,111.53,110.93Z"/></g></g></svg>