<svg xmlns="http://www.w3.org/2000/svg" viewBox="0 0 647.85 647.85"><defs><style>.cls-1{fill:#569ac4;stroke:#000;stroke-miterlimit:10;stroke-width:1.18px;}.cls-2{font-size:56px;font-family:AmericanTypewriterITCPro-Bold, American Typewriter ITC Pro;font-weight:700;letter-spacing:0.07em;}.cls-2,.cls-7{fill:#ffc800;}.cls-3{letter-spacing:0.01em;}.cls-4{letter-spacing:0.07em;}.cls-5{letter-spacing:0.04em;}.cls-6{letter-spacing:0.03em;}.cls-8{fill:#274657;}.cls-9{fill:#d4a600;}.cls-10{fill:#fc0;}</style></defs><g id="Layer_2" data-name="Layer 2"><g id="Layer_1-2" data-name="Layer 1"><circle class="cls-1" cx="323.92" cy="323.92" r="323.33"/><text class="cls-2" transform="translate(85.93 512.42)">HUNG<tspan class="cls-3" x="198.24" y="0">R</tspan><tspan class="cls-4" x="242.48" y="0">Y </tspan><tspan class="cls-5" x="307.44" y="0">C</tspan><tspan class="cls-6" x="347.76" y="0">A</tspan><tspan class="cls-4" x="394.24" y="0">TS</tspan></text><path class="cls-7" d="M488.76,280.69A146,146,0,0,1,341.84,427.36c-80.87-.29-146.92-65.69-146.07-148.69.82-79.66,65.22-146.8,150-145C424.19,135.29,488.87,198.22,488.76,280.69Zm-235-1.12c-1.09,50.28,39.14,89.6,87.73,89.86,50,.27,88.22-39.08,89.33-85.74,1.27-53.24-39.56-91.84-87.95-92.09C292.14,191.35,253,232.21,253.74,279.57Z"/><path class="cls-8" d="M513.19,406.57c.77-20,1.6-41.46,2.23-62.89q.83-27.65,2-55.29c.63-14.1.44-28.24,1.74-42.3.24-2.53-.21-4.36-3-5.43-14.36-5.43-21.67-16.83-22.63-31.27-1.35-20.08-.57-40.21,6.71-59.49,5.92-15.68,22.35-23.71,36-17.31,7.89,3.7,12.32,10.58,15.43,18.19,4.87,11.93,6.88,24.58,7.51,37.39.39,8.05,1.57,16-.55,24.21-3.1,12-9.64,21-20,27.37-2.46,1.5-3.45,3-3.47,5.88-.16,18.64.92,37.26,1.36,55.89.52,22.26,1,44.55,2,66.78.69,14.27-.35,28.59,1.53,42.83,1,7.26-.32,14.05-7.76,17.94A13,13,0,0,1,513.21,418C513.1,414.64,513.19,411.3,513.19,406.57Z"/><path class="cls-8" d="M196.18,170c0,11.33.37,22.68-.11,34-.53,12.58-3.9,24.27-13.85,33a16.22,16.22,0,0,1-4,2.94c-2.62,1.14-3.08,3-3.07,5.61,0,12.3.91,24.59,1.25,36.89.39,14.29.33,28.61.95,42.89.92,20.93,1.44,41.86,2.07,62.79.28,9.13.72,18.26.77,27.4s-5.47,15-13.69,15c-7.58.06-13.48-6.36-13.27-15,.55-21.77,1.62-43.52,2.17-65.29.46-17.76,1.55-35.51,1.9-53.29.32-16.61,1.2-33.2,1.92-49.8.14-3.18-.43-5.24-3.64-7.21-11.41-7-16.23-18.13-17.38-30.94-2.24-24.76-.38-49.59-1-74.38-.08-3.35,1.15-4.29,4.35-4.21,10.4.24,8.6-.91,8.65,8.31.09,19,0,38,0,57a27.22,27.22,0,0,0,0,3.5c.42,3.23,2.26,5.23,5.57,5.21s4.45-2.33,4.44-5.4c0-8.5,0-17,0-25.5,0-12.83.1-25.66-.06-38.49,0-3.37.8-4.75,4.44-4.64,11.62.36,9.48-1.34,9.55,9.42.13,19,.06,38,0,57,0,2.59.12,5,2.48,6.66,3.18,2.28,6.91.83,7.51-3a26.51,26.51,0,0,0,.07-4c0-20.33.19-40.66-.12-61-.08-5.16,2.45-5.05,6.08-5.05s6.28-.13,6.1,5.05C195.91,147,196.19,158.52,196.18,170Z"/><path class="cls-8" d="M101.29,285.56C92.18,269.93,88.85,252.81,88.2,235c-.91-25.19,1.1-50.08,8-74.42,2.88-10.12,6.49-19.93,14.11-27.66,1.42-1.43,2.9-3,5.17-2.06s1.71,3,1.71,4.82q0,74.94,0,149.89Z"/><path class="cls-8" d="M117.18,286.6c.31,18,.8,35.92,1.28,53.87.66,24.26,1.62,48.51,1.93,72.79.07,5,1.31,9.82-3,13.79a16.23,16.23,0,0,1-16.82,2.43c-4.93-2.32-6.6-6.41-6.44-11.83.55-18,.5-35.94,1.27-53.88.84-19.59,1.76-39.17,1.94-58.78,0-4.47.61-8.93.93-13.4,1.37-.2,3.62.55,3.71-1.36.21-4.49,3.24-3.62,5.9-3.64C111,286.57,114.07,286.59,117.18,286.6Z"/><path class="cls-8" d="M117.18,286.6c-3.11,0-6.22,0-9.34,0-2.66,0-5.69-.85-5.9,3.64-.09,1.91-2.34,1.16-3.71,1.36,2.89-1.06,3.39-3.34,3.06-6h15.9C117.19,285.92,117.18,286.26,117.18,286.6Z"/><path class="cls-9" d="M253.73,279.57c-.71-47.36,38.4-88.22,89.11-88,48.38.25,89.21,38.85,88,92.09-1.11,46.66-39.37,86-89.34,85.74C292.87,369.17,252.63,329.85,253.73,279.57Zm168,1.79a79.47,79.47,0,1,0-158.93-1.73c-.36,45.76,35.65,80.31,78.8,80.59A79.29,79.29,0,0,0,421.74,281.36Z"/><path class="cls-10" d="M421.73,281.35a79.29,79.29,0,0,1-80.13,78.86c-43.15-.28-79.16-34.83-78.8-80.59a79.47,79.47,0,1,1,158.93,1.73Zm-46,24.6a28.48,28.48,0,0,0-6.44-20.23c-9.8-12.33-27.47-15.85-41.52-8.69-13.7,7-19.72,21.59-15.53,37.68,3.22,12.38,8.6,15.53,20.39,10.81,7.26-2.91,14-3.42,21,.06a22.11,22.11,0,0,0,3.77,1.31c6.08,1.77,10.25.29,14-4.7C375,317.4,376,312,375.76,306Zm19.92-51.57c-10.56,0-18,5.74-21.12,16.25-2,6.71-.19,12.64,4.5,17.41s10.47,4.35,16.33,2.71a21.39,21.39,0,0,0,11.25-7.89c5-6.53,6.48-13.83,2.83-21.49C406.76,255.67,401.49,254.33,395.68,254.38Zm-32.13-27c-4.81-.82-8.84,2-12.15,6a24.59,24.59,0,0,0-5.34,20.13c.94,5.89,4,10.77,9.92,12.76a15.12,15.12,0,0,0,15.81-3.3,23.76,23.76,0,0,0,7.78-20.71C378.43,232.12,373.35,227.33,363.55,227.37Zm-72.92,27c-9.41,0-14.86,5.18-14.88,14.14,0,11.75,9.79,21.91,21.22,22a15.62,15.62,0,0,0,15.73-15.83C312.76,263.56,302.78,254.38,290.63,254.38Zm17-9.92c0,7.72,2.65,14.21,8.71,19.22s16.21,3.84,20.53-2.82c4.81-7.42,5.09-15.29,1.44-23.22-3.91-8.49-10.95-12-19.44-10C312,229.28,307.68,235.79,307.65,244.46Z"/><path class="cls-8" d="M375.39,306c.26,6-.77,11.45-4.34,16.24-3.72,5-7.88,6.47-14,4.7a22.31,22.31,0,0,1-3.76-1.31c-7-3.48-13.76-3-21-.06-11.79,4.72-17.17,1.58-20.39-10.81-4.19-16.09,1.83-30.69,15.53-37.68,14.05-7.16,31.71-3.64,41.52,8.69A28.43,28.43,0,0,1,375.39,306Z"/><path class="cls-8" d="M395.32,254.46c5.81-.05,11.08,1.29,13.79,7,3.65,7.66,2.17,15-2.83,21.49A21.39,21.39,0,0,1,395,290.83c-5.86,1.64-11.76,1.94-16.33-2.71s-6.47-10.7-4.5-17.41C377.28,260.2,384.75,254.44,395.32,254.46Z"/><path class="cls-8" d="M363.19,227.45c9.8,0,14.87,4.75,16,14.88A23.74,23.74,0,0,1,371.42,263a15.1,15.1,0,0,1-15.8,3.3c-5.93-2-9-6.87-9.93-12.76A24.6,24.6,0,0,1,351,233.45C354.35,229.42,358.37,226.63,363.19,227.45Z"/><path class="cls-8" d="M290.27,254.46c12.14,0,22.13,9.18,22.07,20.29a15.62,15.62,0,0,1-15.73,15.83c-11.43-.07-21.25-10.23-21.22-22C275.41,259.64,280.86,254.46,290.27,254.46Z"/><path class="cls-8" d="M307.29,244.54c0-8.67,4.37-15.18,11.24-16.79,8.49-2,15.53,1.48,19.44,10,3.65,7.93,3.36,15.8-1.44,23.22-4.32,6.66-14.37,7.91-20.53,2.82S307.29,252.26,307.29,244.54Z"/></g></g></svg>