<svg xmlns="http://www.w3.org/2000/svg" viewBox="0 0 101.62 101.62"><defs><style>.cls-1{fill:#e7e7e7;}.cls-2{fill:#d1d1d1;}.cls-3{fill:#a5a5a5;}</style></defs><g id="Layer_2" data-name="Layer 2"><g id="Layer_1-2" data-name="Layer 1"><path class="cls-1" d="M101.62,50.67A50.81,50.81,0,1,1,0,51c0-.38,0-.76,0-1.14a50.81,50.81,0,0,1,101.61.86Zm-81.51-.25a30.71,30.71,0,0,0,61.4,1.37c.48-18.4-13.66-32-30.65-32C33,19.8,19.78,34.27,20.11,50.42Z"/><path class="cls-2" d="M20.11,50.42C19.78,34.27,33,19.8,50.87,19.79c17,0,31.13,13.6,30.65,32a30.71,30.71,0,0,1-61.41-1.37Zm58.27.46A27.56,27.56,0,1,0,50.65,78.27h0A27.56,27.56,0,0,0,78.38,50.88Z"/><path class="cls-1" d="M78.38,50.88A27.56,27.56,0,1,1,51.19,23h0A27.5,27.5,0,0,1,78.38,50.79ZM62.45,59.5a11.57,11.57,0,0,0-.22-2.75C61,52,57.94,49.08,53,48.33c-4.56-.69-8.46.69-11.12,4.44s-2.61,7.8-.69,11.85c.94,2,2.58,2.66,4.75,2.12a16.21,16.21,0,0,0,2.62-.9,6.53,6.53,0,0,1,5.2,0c.7.28,1.4.55,2.11.77,2.39.72,3.77.19,5.22-1.85A8.49,8.49,0,0,0,62.45,59.5Zm4.63-5a8,8,0,0,0,7.77-7.21,5,5,0,0,0-3.24-5.36c-5.42-1.57-9.52,2-9.8,6.81C61.63,51.85,63.8,54.72,67.08,54.5ZM58.25,32.21c-1.69-.27-3.11.67-4.24,2.07a8.38,8.38,0,0,0-1.82,7.13,5.06,5.06,0,0,0,3.71,4.34,5.28,5.28,0,0,0,5.61-1.7,8.25,8.25,0,0,0,1.93-8C62.73,33.37,61.24,32.21,58.25,32.21ZM33.08,41.58c-3.14-.22-5.07,1.59-5.27,4.25A7.48,7.48,0,0,0,34.5,54l.2,0a5.46,5.46,0,0,0,5.89-5,5.68,5.68,0,0,0-.21-2A7.49,7.49,0,0,0,33.08,41.58Zm5.73-4c0,3.29.94,5.55,3.06,7.28a5,5,0,0,0,7-.92l.12-.16a8.19,8.19,0,0,0,0-8.85,5.61,5.61,0,0,0-7.54-2,5.14,5.14,0,0,0-2.65,4.57Z"/><path class="cls-3" d="M62.45,59.5a8.46,8.46,0,0,1-1.35,5.27c-1.45,2-2.83,2.57-5.22,1.85-.71-.22-1.41-.49-2.11-.77a6.53,6.53,0,0,0-5.2,0,16.21,16.21,0,0,1-2.62.9c-2.17.54-3.81-.12-4.75-2.12-1.92-4-1.91-8.17.69-11.85S48.45,47.65,53,48.34c4.93.75,7.94,3.65,9.22,8.42A11.44,11.44,0,0,1,62.45,59.5Z"/><path class="cls-3" d="M67.08,54.5c-3.28.25-5.45-2.62-5.27-5.76.28-4.79,4.38-8.38,9.8-6.81a5,5,0,0,1,3.24,5.36A8,8,0,0,1,67.08,54.5Z"/><path class="cls-3" d="M58.25,32.21c3,0,4.48,1.16,5.22,3.81a8.25,8.25,0,0,1-1.93,8,5.28,5.28,0,0,1-5.64,1.7,5.06,5.06,0,0,1-3.71-4.34A8.38,8.38,0,0,1,54,34.25C55.14,32.88,56.56,31.94,58.25,32.21Z"/><path class="cls-3" d="M33.08,41.58a7.47,7.47,0,0,1,7.3,5.52,5.46,5.46,0,0,1-3.67,6.79,5.25,5.25,0,0,1-2,.21,7.49,7.49,0,0,1-6.91-8c0-.07,0-.13,0-.2C28,43.17,29.94,41.36,33.08,41.58Z"/><path class="cls-3" d="M38.81,37.5a5.15,5.15,0,0,1,2.7-4.64,5.61,5.61,0,0,1,7.54,2,8.19,8.19,0,0,1,0,8.85,5,5,0,0,1-7,1.2l-.16-.12C39.75,43.08,38.84,40.82,38.81,37.5Z"/></g></g></svg>