<svg xmlns="http://www.w3.org/2000/svg" viewBox="0 0 285.26 152.5"><defs><style>.cls-1{fill:#f6f6f6;}</style></defs><g id="Layer_2" data-name="Layer 2"><g id="Layer_1-2" data-name="Layer 1"><path class="cls-1" d="M228.11,129.57A116.58,116.58,0,0,0,124.28,36.46,35,35,0,0,1,89.37,69h-.64a35,35,0,0,0,26.62-33c0-.34,0-.68,0-1A35,35,0,0,0,81,0h-.64a35,35,0,0,0-29.2,54.3A116.64,116.64,0,0,0,.63,125a22.25,22.25,0,0,0,21.6,27.49h187a19.26,19.26,0,0,0,18.93-22.93Zm-200.74-6a11.31,11.31,0,0,1,0-22.61,11.31,11.31,0,0,1,0,22.61Z"/><ellipse class="cls-1" cx="22.41" cy="111.85" rx="4.44" ry="4.3"/><path class="cls-1" d="M181.22,146.24A24.49,24.49,0,0,0,189,148a54.27,54.27,0,0,0,8,.21,124.14,124.14,0,0,0,16-1.6c5.29-.77,10.56-1.76,15.74-3l3.88-1c1.3-.31,2.58-.63,3.86-1s2.56-.69,3.82-1.07,2.54-.74,3.79-1.13c2.52-.76,5-1.61,7.42-2.5,1.22-.44,2.4-.91,3.6-1.36s2.36-1,3.5-1.48,2.29-1,3.35-1.6l1.61-.82,1.54-.86a28.21,28.21,0,0,0,5.11-3.63c.31-.3.52-.58.8-.85a1.54,1.54,0,0,0,.28-.36,2.43,2.43,0,0,1,.24-.32,3.08,3.08,0,0,0,.32-.52l.36-.63a7.85,7.85,0,0,0,.68-1.28l.6-1.3c.18-.44.29-.91.46-1.36l.23-.67c.07-.23.1-.47.16-.7l.32-1.38a24,24,0,0,0,.28-5.68,13.25,13.25,0,0,0-.18-1.41,8,8,0,0,0-.26-1.4l-.34-1.39c-.16-.45-.33-.89-.47-1.34a19.68,19.68,0,0,0-2.6-5,24.82,24.82,0,0,0-1.77-2.21c-.34-.34-.7-.65-1-1l-.51-.5-.56-.44L266,96.51c-.37-.23-.73-.45-1.08-.7s-.76-.39-1.12-.61a7.59,7.59,0,0,0-1.17-.52,16.63,16.63,0,0,0-5-1.09,16.25,16.25,0,0,0-10,3l-1.08.82c-.32.32-.65.63-1,.93a24.08,24.08,0,0,0-1.7,2,11.34,11.34,0,0,0-2,4.52A12.42,12.42,0,0,0,242,110a14.28,14.28,0,0,0,2.29,4.89l.9,1.09c.34.31.68.68,1,1a10.08,10.08,0,0,0,2.16,1.45,10.37,10.37,0,0,0,5.34,1,10.66,10.66,0,0,0,2.86-.56,11.6,11.6,0,0,0,2.7-1.36,14.53,14.53,0,0,0,1.22-1l.57-.56a1.21,1.21,0,0,0,.23-.25l.19-.22a5.62,5.62,0,0,0,1.13-2.38,10.59,10.59,0,0,0,.08-3.3,18.21,18.21,0,0,0-.92-3.55,21,21,0,0,0-1.68-3.48,20.62,20.62,0,0,0-2.45-3.12l.59-.86a19.6,19.6,0,0,1,5.66,6.26,20.84,20.84,0,0,1,1.7,3.9,14.84,14.84,0,0,1,.63,4.26,9.44,9.44,0,0,1-1.1,4.26,14.6,14.6,0,0,1-2.67,3.4,16.74,16.74,0,0,1-3.5,2.52,15.79,15.79,0,0,1-4.05,1.5,15.14,15.14,0,0,1-4.3.36,15.49,15.49,0,0,1-4.26-.79,17.92,17.92,0,0,1-7.18-4.65,20.3,20.3,0,0,1-5.51-15.78,19.74,19.74,0,0,1,2.62-8.15,24.11,24.11,0,0,1,5.54-6.48,24.93,24.93,0,0,1,31.67,0l.84.65.78.73c.52.48,1.05,1,1.55,1.46a31.57,31.57,0,0,1,2.71,3.29,29.63,29.63,0,0,1,4,7.51c3.92,10.66,1.67,23.63-6.82,31.61-4.4,3.66-9.54,6-14.69,8a127.14,127.14,0,0,1-15.9,4.84,177.86,177.86,0,0,1-32.79,4.68,112.08,112.08,0,0,1-16.59-.43,56,56,0,0,1-8.21-1.44,24.68,24.68,0,0,1-7.76-3.25Z"/></g></g></svg>